<svg id="Ebene_1" data-name="Ebene 1" xmlns="http://www.w3.org/2000/svg" xmlns:xlink="http://www.w3.org/1999/xlink" width="16" height="16" viewBox="0 0 16 16"><defs><style>.cls-1{fill:#4d4d4d;}.cls-2{fill:#b3b3b3;}.cls-3{stroke:#0071bc;stroke-width:0.5px;fill:url(#Unbenannter_Verlauf_21);}.cls-3,.cls-4{stroke-miterlimit:10;}.cls-4{fill:#666;stroke:#4d4d4d;stroke-width:0.25px;}.cls-5{fill:#006837;}.cls-6{fill:#c1272d;}</style><radialGradient id="Unbenannter_Verlauf_21" cx="7.42" cy="5.47" r="2.63" gradientTransform="translate(0 0.85) scale(1 0.84)" gradientUnits="userSpaceOnUse"><stop offset="0" stop-color="#65baf7"/><stop offset="0.43" stop-color="#63b9f7"/><stop offset="0.67" stop-color="#5ab5f6"/><stop offset="0.87" stop-color="#4caff6"/><stop offset="1" stop-color="#3fa9f5"/></radialGradient></defs><title>icon-devices</title><rect class="cls-1" x="8.97" width="1.68" height="15.89" rx="0.54"/><rect class="cls-2" x="3.61" y="1.89" width="7.79" height="14.11" rx="1.62"/><rect class="cls-3" x="4.09" y="2.95" width="6.68" height="5.05" rx="1.15"/><rect class="cls-4" x="4.76" y="10" width="0.84" height="0.84"/><rect class="cls-4" x="7.08" y="10" width="0.84" height="0.84" transform="translate(-2.92 17.92) rotate(-90)"/><rect class="cls-4" x="9.39" y="10" width="0.84" height="0.84" transform="translate(-0.61 20.24) rotate(-90)"/><rect class="cls-4" x="4.76" y="11.68" width="0.84" height="0.84"/><rect class="cls-4" x="7.08" y="11.68" width="0.84" height="0.84" transform="translate(-4.61 19.61) rotate(-90)"/><rect class="cls-4" x="9.39" y="11.68" width="0.84" height="0.84" transform="translate(-2.29 21.92) rotate(-90)"/><rect class="cls-4" x="4.76" y="13.37" width="0.84" height="0.84"/><rect class="cls-4" x="7.08" y="13.37" width="0.84" height="0.84" transform="translate(-6.29 21.29) rotate(-90)"/><rect class="cls-4" x="9.39" y="13.37" width="0.84" height="0.84" transform="translate(-3.97 23.61) rotate(-90)"/><rect class="cls-5" x="4.66" y="8.63" width="1.68" height="0.42"/><rect class="cls-6" x="8.66" y="8.63" width="1.68" height="0.42"/></svg>