<svg id="Ebene_1" data-name="Ebene 1" xmlns="http://www.w3.org/2000/svg" width="16" height="16" viewBox="0 0 16 16"><defs><style>.cls-1{fill:#333;opacity:0.78;}.cls-2{fill:#40617d;stroke-miterlimit:10;}.cls-2,.cls-3{stroke:#103a5d;stroke-width:0.5px;}.cls-3{fill:none;stroke-linejoin:round;}</style></defs><title>location_flag</title><path class="cls-1" d="M2.85,15.48l6.32-3.82a.15.15,0,0,1,.13,0l1.09.11a.18.18,0,0,1,.09.34L4,15.94a.28.28,0,0,1-.13,0l-1-.11a.18.18,0,0,1,0-.36h0Z"/><rect class="cls-2" x="2.32" y="1.5" width="1.84" height="14.52" rx="0.82"/><path class="cls-3" d="M5,2.05V8.71a4.16,4.16,0,0,0,4.6,0c2.38-1.58,5.08.16,5.08.16V2.37S11.82.46,9.6,2.05A4.24,4.24,0,0,1,5,2.05Z"/></svg>