<svg id="Ebene_1" data-name="Ebene 1" xmlns="http://www.w3.org/2000/svg" xmlns:xlink="http://www.w3.org/1999/xlink" width="16" height="16" viewBox="0 0 16 16"><defs><style>.cls-1,.cls-3{fill:none;}.cls-1,.cls-10,.cls-11,.cls-12,.cls-13,.cls-14,.cls-15,.cls-16,.cls-17,.cls-18,.cls-19,.cls-20,.cls-21,.cls-22,.cls-23,.cls-24,.cls-25,.cls-26,.cls-27,.cls-28,.cls-29,.cls-30,.cls-31,.cls-32,.cls-33,.cls-34,.cls-35,.cls-36,.cls-37,.cls-38,.cls-39,.cls-40,.cls-41,.cls-42,.cls-43,.cls-44,.cls-45,.cls-46,.cls-47,.cls-48,.cls-49,.cls-50,.cls-51,.cls-52,.cls-53,.cls-54,.cls-55,.cls-56,.cls-57,.cls-58,.cls-7,.cls-8,.cls-9{stroke:#bf0000;stroke-miterlimit:10;}.cls-2{fill:#b5ca97;}.cls-3{stroke:#103a5d;stroke-linecap:round;stroke-linejoin:round;stroke-width:0.75px;}.cls-4{fill:#4a7628;}.cls-5{fill:#0098d6;}.cls-6{clip-path:url(#clip-path);}.cls-7{fill:#39b54a;}.cls-8{fill:#3cb64a;}.cls-9{fill:#3fb649;}.cls-10{fill:#42b749;}.cls-11{fill:#45b848;}.cls-12{fill:#48b848;}.cls-13{fill:#4bb948;}.cls-14{fill:#4eb947;}.cls-15{fill:#50ba47;}.cls-16{fill:#53ba47;}.cls-17{fill:#55bb46;}.cls-18{fill:#58bb46;}.cls-19{fill:#5abc46;}.cls-20{fill:#5cbc45;}.cls-21{fill:#5ebd45;}.cls-22{fill:#61bd45;}.cls-23{fill:#63be44;}.cls-24{fill:#65be44;}.cls-25{fill:#67be44;}.cls-26{fill:#68bf44;}.cls-27{fill:#6abf43;}.cls-28{fill:#6cbf43;}.cls-29{fill:#6ec043;}.cls-30{fill:#6fc043;}.cls-31{fill:#71c043;}.cls-32{fill:#72c142;}.cls-33{fill:#74c142;}.cls-34{fill:#75c142;}.cls-35{fill:#76c242;}.cls-36{fill:#78c242;}.cls-37{fill:#79c242;}.cls-38{fill:#7ac241;}.cls-39{fill:#7bc341;}.cls-40{fill:#7cc341;}.cls-41{fill:#7dc341;}.cls-42{fill:#7ec341;}.cls-43{fill:#7fc341;}.cls-44{fill:#80c441;}.cls-45{fill:#81c440;}.cls-46{fill:#82c440;}.cls-47{fill:#83c440;}.cls-48{fill:#84c440;}.cls-49{fill:#85c540;}.cls-50{fill:#86c540;}.cls-51{fill:#87c540;}.cls-52{fill:#88c540;}.cls-53{fill:#88c53f;}.cls-54{fill:#89c53f;}.cls-55{fill:#8ac63f;}.cls-56{fill:#8bc63f;}.cls-57{fill:#8cc63f;}.cls-58{fill:#c1272d;}.cls-59{fill:#103a5d;}.cls-60{fill:#fff;}</style><clipPath id="clip-path"><line class="cls-1" x1="6.5" y1="9.5" x2="14.5" y2="1.5"/></clipPath></defs><title>tracking</title><polygon class="cls-2" points="1.29 1.7 9.57 1.7 11.47 0.7 13.23 0.65 14.84 1.7 15 4.47 14.84 15.28 13.01 14.23 11.23 14.5 9.98 15.13 9.74 15.31 6.68 15.31 1 15.31 1.29 1.7"/><polyline class="cls-3" points="8.3 1.7 1.01 1.7 1.01 15.31 8.3 15.31"/><path class="cls-3" d="M9.8,1.66c-.52.41,2.51-2.7,5,0V15.27a4,4,0,0,0-5,0"/><path class="cls-4" d="M10.14,2.73s2.51-1.57,4.06,0V7.42S11.19,7,11,5.88s.33-1.07-.53-1.83S10.14,2.73,10.14,2.73Z"/><path class="cls-4" d="M6.5,3.79s-2.37-1-3.32-.23S2.44,5,2.1,5.71A3.7,3.7,0,0,0,2,8.46C2.29,9.48,3,10,3.32,11.1s1.19,1.34,1.88.7,1.22-2.22,2.23-2S9,8.93,9,8.55a3.2,3.2,0,0,0-.2-2.37C8.26,4.56,7.78,3.63,6.5,3.79Z"/><path class="cls-5" d="M11.46,9.6a2.24,2.24,0,0,0-1.72.84,3.5,3.5,0,0,0-.47,3.06c.17.09.47.73.47.73a3.1,3.1,0,0,1,2.54-1.29c1.91-.16,1.93-.57,1.93-.57V9.31A4.52,4.52,0,0,0,11.46,9.6Z"/><g class="cls-6"><rect class="cls-7" x="6.5" y="1.5" width="8" height="8"/><circle class="cls-7" cx="10.5" cy="5.5" r="4"/><circle class="cls-8" cx="10.5" cy="5.5" r="3.95"/><circle class="cls-9" cx="10.5" cy="5.5" r="3.9"/><circle class="cls-10" cx="10.5" cy="5.5" r="3.86"/><circle class="cls-11" cx="10.5" cy="5.5" r="3.81"/><circle class="cls-12" cx="10.5" cy="5.5" r="3.76"/><circle class="cls-13" cx="10.5" cy="5.5" r="3.71"/><circle class="cls-14" cx="10.5" cy="5.5" r="3.66"/><circle class="cls-15" cx="10.5" cy="5.5" r="3.61"/><circle class="cls-16" cx="10.5" cy="5.5" r="3.57"/><circle class="cls-17" cx="10.5" cy="5.5" r="3.52"/><circle class="cls-18" cx="10.5" cy="5.5" r="3.47"/><circle class="cls-19" cx="10.5" cy="5.5" r="3.42"/><circle class="cls-20" cx="10.5" cy="5.5" r="3.37"/><circle class="cls-21" cx="10.5" cy="5.5" r="3.33"/><circle class="cls-22" cx="10.5" cy="5.5" r="3.28"/><circle class="cls-23" cx="10.5" cy="5.5" r="3.23"/><circle class="cls-24" cx="10.5" cy="5.5" r="3.18"/><circle class="cls-25" cx="10.5" cy="5.5" r="3.13"/><circle class="cls-26" cx="10.5" cy="5.5" r="3.08"/><circle class="cls-27" cx="10.5" cy="5.5" r="3.04"/><circle class="cls-28" cx="10.5" cy="5.5" r="2.99"/><circle class="cls-29" cx="10.5" cy="5.5" r="2.94"/><circle class="cls-30" cx="10.5" cy="5.5" r="2.89"/><circle class="cls-31" cx="10.5" cy="5.5" r="2.84"/><circle class="cls-32" cx="10.5" cy="5.5" r="2.8"/><circle class="cls-33" cx="10.5" cy="5.5" r="2.75"/><circle class="cls-34" cx="10.5" cy="5.5" r="2.7"/><circle class="cls-35" cx="10.5" cy="5.5" r="2.65"/><circle class="cls-36" cx="10.5" cy="5.5" r="2.6"/><circle class="cls-37" cx="10.5" cy="5.5" r="2.55"/><circle class="cls-38" cx="10.5" cy="5.5" r="2.51"/><circle class="cls-39" cx="10.5" cy="5.5" r="2.46"/><circle class="cls-40" cx="10.5" cy="5.5" r="2.41"/><circle class="cls-41" cx="10.5" cy="5.5" r="2.36"/><circle class="cls-42" cx="10.5" cy="5.5" r="2.31"/><circle class="cls-43" cx="10.5" cy="5.5" r="2.27"/><circle class="cls-44" cx="10.5" cy="5.5" r="2.22"/><circle class="cls-45" cx="10.5" cy="5.5" r="2.17"/><circle class="cls-46" cx="10.5" cy="5.5" r="2.12"/><circle class="cls-46" cx="10.5" cy="5.5" r="2.07"/><circle class="cls-47" cx="10.5" cy="5.5" r="2.02"/><circle class="cls-48" cx="10.5" cy="5.5" r="1.98"/><circle class="cls-48" cx="10.5" cy="5.5" r="1.93"/><circle class="cls-49" cx="10.5" cy="5.5" r="1.88"/><circle class="cls-50" cx="10.5" cy="5.5" r="1.83"/><circle class="cls-50" cx="10.5" cy="5.5" r="1.78"/><circle class="cls-51" cx="10.5" cy="5.5" r="1.73"/><circle class="cls-51" cx="10.5" cy="5.5" r="1.69"/><circle class="cls-52" cx="10.5" cy="5.5" r="1.64"/><circle class="cls-52" cx="10.5" cy="5.5" r="1.59"/><circle class="cls-53" cx="10.5" cy="5.5" r="1.54"/><circle class="cls-54" cx="10.5" cy="5.5" r="1.49"/><circle class="cls-54" cx="10.5" cy="5.5" r="1.45"/><circle class="cls-54" cx="10.5" cy="5.5" r="1.4"/><circle class="cls-55" cx="10.5" cy="5.5" r="1.35"/><circle class="cls-55" cx="10.5" cy="5.5" r="1.3"/><circle class="cls-55" cx="10.5" cy="5.5" r="1.25"/><circle class="cls-55" cx="10.5" cy="5.5" r="1.2"/><circle class="cls-56" cx="10.5" cy="5.5" r="1.16"/><circle class="cls-56" cx="10.5" cy="5.5" r="1.11"/><circle class="cls-56" cx="10.5" cy="5.5" r="1.06"/><circle class="cls-56" cx="10.5" cy="5.5" r="1.01"/><circle class="cls-56" cx="10.5" cy="5.5" r="0.96"/><circle class="cls-56" cx="10.5" cy="5.5" r="0.92"/><circle class="cls-56" cx="10.5" cy="5.5" r="0.87"/><circle class="cls-57" cx="10.5" cy="5.5" r="0.82"/><circle class="cls-57" cx="10.5" cy="5.5" r="0.77"/><circle class="cls-57" cx="10.5" cy="5.5" r="0.72"/><circle class="cls-57" cx="10.5" cy="5.5" r="0.67"/><circle class="cls-57" cx="10.5" cy="5.5" r="0.63"/><circle class="cls-57" cx="10.5" cy="5.5" r="0.58"/><circle class="cls-57" cx="10.5" cy="5.5" r="0.53"/><circle class="cls-57" cx="10.5" cy="5.5" r="0.48"/><circle class="cls-57" cx="10.5" cy="5.5" r="0.43"/><circle class="cls-57" cx="10.5" cy="5.5" r="0.39"/><circle class="cls-57" cx="10.5" cy="5.5" r="0.34"/><circle class="cls-57" cx="10.5" cy="5.5" r="0.29"/><circle class="cls-57" cx="10.5" cy="5.5" r="0.24"/><circle class="cls-57" cx="10.5" cy="5.5" r="0.19"/><circle class="cls-57" cx="10.5" cy="5.5" r="0.14"/><circle class="cls-57" cx="10.5" cy="5.5" r="0.1"/><circle class="cls-57" cx="10.5" cy="5.5" r="0.05"/></g><line class="cls-1" x1="6.5" y1="9.5" x2="14.5" y2="1.5"/><path class="cls-58" d="M6.5,10.5a1,1,0,0,1-.71-.29,1,1,0,0,1,0-1.42l8-8a1,1,0,1,1,1.42,1.42l-8,8A1,1,0,0,1,6.5,10.5Z"/><path class="cls-59" d="M4.53,15a.38.38,0,0,1-.37-.37V11.89H1.47a.38.38,0,0,1-.37-.37V10.06a.38.38,0,0,1,.37-.38H4.16V7a.37.37,0,0,1,.37-.37H6A.36.36,0,0,1,6.36,7V9.68H9.05a.38.38,0,0,1,.37.38v1.46a.38.38,0,0,1-.37.37H6.36v2.69A.37.37,0,0,1,6,15Z"/><path class="cls-60" d="M6,7v3.06H9.05v1.46H6v3.06H4.53V11.52H1.47V10.06H4.53V7H6m0-.75H4.53A.76.76,0,0,0,3.78,7V9.31H1.47a.76.76,0,0,0-.75.75v1.46a.76.76,0,0,0,.75.75H3.78v2.31a.76.76,0,0,0,.75.75H6a.76.76,0,0,0,.75-.75V12.27H9.05a.76.76,0,0,0,.75-.75V10.06a.76.76,0,0,0-.75-.75H6.74V7A.76.76,0,0,0,6,6.25Z"/></svg>